<?xml version="1.0" encoding="UTF-8" standalone="no"?>
<!DOCTYPE svg PUBLIC "-//W3C//DTD SVG 1.1//EN"
 "http://www.w3.org/Graphics/SVG/1.1/DTD/svg11.dtd">
<!-- Generated by graphviz version 2.36.0 (20140111.2315)
 -->
<!-- Title: G Pages: 1 -->
<svg width="603pt" height="136pt"
 viewBox="0.00 0.00 603.20 136.39" xmlns="http://www.w3.org/2000/svg" xmlns:xlink="http://www.w3.org/1999/xlink">
<g id="graph0" class="graph" transform="scale(1 1) rotate(0) translate(21.6 114.79)">
<title>G</title>
<polygon fill="#111111" stroke="none" points="-21.6,21.6 -21.6,-114.79 581.6,-114.79 581.6,21.6 -21.6,21.6"/>
<!-- index.js -->
<g id="node1" class="node"><title>index.js</title>
<path fill="none" stroke="#c6c5fe" d="M56.3333,-35.6897C56.3333,-35.6897 7.66667,-35.6897 7.66667,-35.6897 3.83333,-35.6897 0,-31.8563 0,-28.023 0,-28.023 0,-20.3563 0,-20.3563 0,-16.523 3.83333,-12.6897 7.66667,-12.6897 7.66667,-12.6897 56.3333,-12.6897 56.3333,-12.6897 60.1667,-12.6897 64,-16.523 64,-20.3563 64,-20.3563 64,-28.023 64,-28.023 64,-31.8563 60.1667,-35.6897 56.3333,-35.6897"/>
<text text-anchor="middle" x="32" y="-20.4897" font-family="Arial" font-size="14.00" fill="#c6c5fe">index.js</text>
</g>
<!-- lib/coffee.js -->
<g id="node2" class="node"><title>lib/coffee.js</title>
<path fill="none" stroke="#c6c5fe" d="M179.833,-65.6897C179.833,-65.6897 108.167,-65.6897 108.167,-65.6897 104.333,-65.6897 100.5,-61.8563 100.5,-58.023 100.5,-58.023 100.5,-50.3563 100.5,-50.3563 100.5,-46.523 104.333,-42.6897 108.167,-42.6897 108.167,-42.6897 179.833,-42.6897 179.833,-42.6897 183.667,-42.6897 187.5,-46.523 187.5,-50.3563 187.5,-50.3563 187.5,-58.023 187.5,-58.023 187.5,-61.8563 183.667,-65.6897 179.833,-65.6897"/>
<text text-anchor="middle" x="144" y="-50.4897" font-family="Arial" font-size="14.00" fill="#c6c5fe">lib/coffee.js</text>
</g>
<!-- index.js&#45;&gt;lib/coffee.js -->
<g id="edge1" class="edge"><title>index.js&#45;&gt;lib/coffee.js</title>
<path fill="none" stroke="#757575" d="M64.2274,-32.7062C72.8071,-35.0462 82.3426,-37.6468 91.7324,-40.2076"/>
<polygon fill="#757575" stroke="#757575" points="90.85,-43.5947 101.419,-42.8493 92.6919,-36.8414 90.85,-43.5947"/>
</g>
<!-- lib/rule.js -->
<g id="node3" class="node"><title>lib/rule.js</title>
<path fill="none" stroke="#c6c5fe" d="M434.333,-64.6897C434.333,-64.6897 377.667,-64.6897 377.667,-64.6897 373.833,-64.6897 370,-60.8563 370,-57.023 370,-57.023 370,-49.3563 370,-49.3563 370,-45.523 373.833,-41.6897 377.667,-41.6897 377.667,-41.6897 434.333,-41.6897 434.333,-41.6897 438.167,-41.6897 442,-45.523 442,-49.3563 442,-49.3563 442,-57.023 442,-57.023 442,-60.8563 438.167,-64.6897 434.333,-64.6897"/>
<text text-anchor="middle" x="406" y="-49.4897" font-family="Arial" font-size="14.00" fill="#c6c5fe">lib/rule.js</text>
</g>
<!-- index.js&#45;&gt;lib/rule.js -->
<g id="edge2" class="edge"><title>index.js&#45;&gt;lib/rule.js</title>
<path fill="none" stroke="#757575" d="M64.4162,-17.1708C119.898,-6.0596 238.403,11.8863 334,-13.1897 351.123,-17.6813 368.47,-27.338 381.73,-36.0377"/>
<polygon fill="#757575" stroke="#757575" points="379.974,-39.0772 390.205,-41.8324 383.925,-33.2988 379.974,-39.0772"/>
</g>
<!-- lib/coffee.js&#45;&gt;lib/rule.js -->
<g id="edge3" class="edge"><title>lib/coffee.js&#45;&gt;lib/rule.js</title>
<path fill="none" stroke="#757575" d="M187.786,-54.3613C226.094,-54.4741 283.798,-54.5432 334,-54.1897 342.326,-54.131 351.2,-54.0337 359.754,-53.9223"/>
<polygon fill="#757575" stroke="#757575" points="360.021,-57.419 369.971,-53.7809 359.924,-50.4197 360.021,-57.419"/>
</g>
<!-- lib/rule_error.js -->
<g id="node4" class="node"><title>lib/rule_error.js</title>
<path fill="none" stroke="#c6c5fe" d="M325.833,-45.6897C325.833,-45.6897 232.167,-45.6897 232.167,-45.6897 228.333,-45.6897 224.5,-41.8563 224.5,-38.023 224.5,-38.023 224.5,-30.3563 224.5,-30.3563 224.5,-26.523 228.333,-22.6897 232.167,-22.6897 232.167,-22.6897 325.833,-22.6897 325.833,-22.6897 329.667,-22.6897 333.5,-26.523 333.5,-30.3563 333.5,-30.3563 333.5,-38.023 333.5,-38.023 333.5,-41.8563 329.667,-45.6897 325.833,-45.6897"/>
<text text-anchor="middle" x="279" y="-30.4897" font-family="Arial" font-size="14.00" fill="#c6c5fe">lib/rule_error.js</text>
</g>
<!-- lib/coffee.js&#45;&gt;lib/rule_error.js -->
<g id="edge4" class="edge"><title>lib/coffee.js&#45;&gt;lib/rule_error.js</title>
<path fill="none" stroke="#757575" d="M187.814,-47.7515C196.201,-46.4903 205.165,-45.1423 214.068,-43.8035"/>
<polygon fill="#757575" stroke="#757575" points="214.691,-47.2492 224.06,-42.301 213.65,-40.327 214.691,-47.2492"/>
</g>
<!-- lib/show.js -->
<g id="node5" class="node"><title>lib/show.js</title>
<path fill="none" stroke="#cfffac" d="M551.833,-93.6897C551.833,-93.6897 486.167,-93.6897 486.167,-93.6897 482.333,-93.6897 478.5,-89.8563 478.5,-86.023 478.5,-86.023 478.5,-78.3563 478.5,-78.3563 478.5,-74.523 482.333,-70.6897 486.167,-70.6897 486.167,-70.6897 551.833,-70.6897 551.833,-70.6897 555.667,-70.6897 559.5,-74.523 559.5,-78.3563 559.5,-78.3563 559.5,-86.023 559.5,-86.023 559.5,-89.8563 555.667,-93.6897 551.833,-93.6897"/>
<text text-anchor="middle" x="519" y="-78.4897" font-family="Arial" font-size="14.00" fill="#cfffac">lib/show.js</text>
</g>
<!-- lib/coffee.js&#45;&gt;lib/show.js -->
<g id="edge5" class="edge"><title>lib/coffee.js&#45;&gt;lib/show.js</title>
<path fill="none" stroke="#757575" d="M187.879,-63.4898C199.544,-65.7026 212.213,-67.8173 224,-69.1897 309.456,-79.1398 409.694,-81.6247 468.294,-82.1602"/>
<polygon fill="#757575" stroke="#757575" points="468.36,-85.6607 478.387,-82.2367 468.414,-78.6609 468.36,-85.6607"/>
</g>
<!-- lib/rule.js&#45;&gt;lib/show.js -->
<g id="edge6" class="edge"><title>lib/rule.js&#45;&gt;lib/show.js</title>
<path fill="none" stroke="#757575" d="M442.121,-62.3654C450.52,-64.5597 459.642,-66.9429 468.553,-69.2711"/>
<polygon fill="#757575" stroke="#757575" points="467.915,-72.7218 478.475,-71.8633 469.684,-65.9491 467.915,-72.7218"/>
</g>
<!-- lib/rule_error.js&#45;&gt;lib/rule.js -->
<g id="edge7" class="edge"><title>lib/rule_error.js&#45;&gt;lib/rule.js</title>
<path fill="none" stroke="#757575" d="M333.737,-42.3576C342.393,-43.6733 351.277,-45.0238 359.709,-46.3054"/>
<polygon fill="#757575" stroke="#757575" points="359.31,-49.785 369.723,-47.8276 360.362,-42.8645 359.31,-49.785"/>
</g>
</g>
</svg>
